<svg viewBox="0 0 44 20" style="background-color:#ffffff00" version="1.1"
	xmlns="http://www.w3.org/2000/svg" xmlns:xlink="http://www.w3.org/1999/xlink"
	x="0" y="0" width="44px" height="20px"
>
	<path fill="#fff" d="M 7 8 L 7.9 4 L 10.3 4 C 10.8 4 11.2 4.1 11.5 4.4 C 11.6 4.7 12 5 12 5.6 C 12 6.2 11.8 6.8 11.3 7.3 C 10.8 7.8 10.2 8 9.4 8 L 7 8 ZM 4.7 19 L 6.2 12 L 9.2 12 C 10.6 12 11.8 11.8 12.8 11.4 C 13.8 11 14.6 10.4 15.2 9.7 C 15.9 9 16.33 8.3 16.6 7.5 C 16.9 6.67 17 5.9 17 5 C 17 4.4 16.9 3.7 16.67 3 C 16.4 2.5 16 1.9 15.5 1.5 C 15 1 14.5 0.7 13.9 0.4 C 13.2 0 12.5 0 11.67 0 L 4.3 0 L 0 19 L 4.7 19 Z"/>
	<path fill="#fff" d="M 22.5 8 L 23.5 4 L 25.6 4 C 26.33 4 26.7 4.14 27 4.42 C 27.42 4.7 27.6 5 27.6 5.6 C 27.6 6.27 27.4 6.8 26.9 7.3 C 26.4 7.8 25.8 8 25 8 L 22.5 8 ZM 29.8 19 L 28.2 11.9 C 28.8 11.8 29.3 11.5 29.9 11 C 30.4 10.6 30.9 10 31.3 9.5 C 31.67 9 32 8.33 32.2 7.6 C 32.5 6.9 32.6 6.1 32.6 5.33 C 32.6 4.6 32.4 3.8 32 3.2 C 31.8 2.5 31.4 2 30.9 1.5 C 30.4 1 29.9 0.7 29.2 0.4 C 28.5 0 27.7 0 27 0 L 19.8 0 L 15.6 19 L 20.3 19 L 21.7 12 L 23.6 12 L 24.7 19 L 29.8 19 Z"/>
	<path fill="#fff" d="M 43 19 L 44 15 L 37.5 15 L 41 0 L 36.5 0 L 32 19 L 43 19 Z"/>
</svg>